<svg id="Layer_1" data-name="Layer 1" xmlns="http://www.w3.org/2000/svg"
    xmlns:xlink="http://www.w3.org/1999/xlink" viewBox="0 0 98 98">
    <defs>
        <style>
            .cls-1{fill:white;}.cls-2{fill:url(#linear-gradient);}.cls-3{fill:url(#linear-gradient-2);}.cls-4{fill:#886b25;}.cls-5{fill:url(#linear-gradient-3);}.cls-6{fill:#007d8a;}.cls-7{fill:#007041;}</style>
        <linearGradient id="linear-gradient" x1="49.21" y1="98.5" x2="117.21" y2="98.5"
            gradientUnits="userSpaceOnUse">
            <stop offset="0" stop-color="#00a9ce" />
            <stop offset="0.41" stop-color="#00a7cb" />
            <stop offset="0.66" stop-color="#009fc3" />
            <stop offset="0.86" stop-color="#0091b5" />
            <stop offset="1" stop-color="#0083a6" />
        </linearGradient>
        <linearGradient id="linear-gradient-2" x1="59.4" y1="50.61" x2="119.95" y2="50.61"
            gradientUnits="userSpaceOnUse">
            <stop offset="0" stop-color="#ffa300" />
            <stop offset="0.35" stop-color="#fca200" />
            <stop offset="0.56" stop-color="#f49d00" />
            <stop offset="0.73" stop-color="#e69600" />
            <stop offset="0.89" stop-color="#d28b00" />
            <stop offset="1" stop-color="#bd8000" />
        </linearGradient>
        <linearGradient id="linear-gradient-3" x1="24.17" y1="68.4" x2="59.4" y2="68.4"
            gradientUnits="userSpaceOnUse">
            <stop offset="0" stop-color="#00b140" />
            <stop offset="0.39" stop-color="#00ae40" />
            <stop offset="0.62" stop-color="#01a63e" />
            <stop offset="0.82" stop-color="#02983b" />
            <stop offset="0.99" stop-color="#038437" />
            <stop offset="1" stop-color="#038237" />
        </linearGradient>
    </defs>
    <path class="cls-1"
        d="M95.79,77.8,86.54,55.15c-.91-2.09-1.59-3.6-3-3.6s-2.07,1.6-2.91,3.59L75,68.21,69.47,55.15c-.84-2-1.5-3.59-2.91-3.6s-2.06,1.51-3,3.63L54.33,77.82a4.36,4.36,0,0,0,4.29,6.27h4.07v5.16a3.37,3.37,0,0,0,3.36,3.36h1.17a3.37,3.37,0,0,0,3.36-3.36V86.73c0-.09,0-.18,0-.27V84.09h9v2.37a2.44,2.44,0,0,0,0,.27v2.52a3.37,3.37,0,0,0,3.36,3.36h1.17a3.37,3.37,0,0,0,3.36-3.36V84.09h4.07a4.36,4.36,0,0,0,4.28-6.29ZM71.15,81.59H68.07v7.66a.85.85,0,0,1-.85.85H66.06a.85.85,0,0,1-.85-.85l0-3.06v-4.6H58.62a1.89,1.89,0,0,1-2-2.84l9.22-22.6c.13-.28.4-.9.66-1.43.17.36.38.83.62,1.41l6.51,15.29-2.49,6.4A4.83,4.83,0,0,0,71.15,81.59Zm5.45-.85a2,2,0,0,1-1.53.81,2,2,0,0,1-1.54-.81,2.23,2.23,0,0,1,0-2L75,74.82l1.57,3.92A2.21,2.21,0,0,1,76.6,80.74Zm16.81.05a2.2,2.2,0,0,1-1.9.8H84.93v7.66a.85.85,0,0,1-.85.85H82.9a.85.85,0,0,1-.85-.85V81.59H79a4.88,4.88,0,0,0,0-3.77l-2.57-6.4L83,56.12c.24-.57.45-1,.62-1.4.26.52.52,1.14.64,1.41l9.23,22.6A2.2,2.2,0,0,1,93.41,80.79Z"
        transform="translate(-24.17 -24.17)" />
    <path class="cls-2"
        d="M100.75,95.06A35,35,0,0,1,75,106.26q-1.61,0-3.18-.15a38.18,38.18,0,0,1-22.65-1,37.93,37.93,0,0,0,68-23.1,39.08,39.08,0,0,0-.33-5A38.09,38.09,0,0,1,100.75,95.06Z"
        transform="translate(-24.17 -24.17)" />
    <path class="cls-3"
        d="M81,36.57a35.14,35.14,0,0,1,25.6,19.13,37.81,37.81,0,0,1,10.32,21.35A37.93,37.93,0,0,0,59.4,31.65c.89-.06,1.79-.09,2.69-.09A37.79,37.79,0,0,1,81,36.57Z"
        transform="translate(-24.17 -24.17)" />
    <path class="cls-4"
        d="M110.15,71.17a34.94,34.94,0,0,1-9.4,23.89,38.09,38.09,0,0,0,16.13-18A37.81,37.81,0,0,0,106.56,55.7,34.91,34.91,0,0,1,110.15,71.17Z"
        transform="translate(-24.17 -24.17)" />
    <path class="cls-5"
        d="M41.37,81.09a35.13,35.13,0,0,1,4-28.62A38,38,0,0,1,59.4,31.65a37.92,37.92,0,0,0-10.19,73.49A37.78,37.78,0,0,1,41.36,82C41.36,81.72,41.36,81.41,41.37,81.09Z"
        transform="translate(-24.17 -24.17)" />
    <path class="cls-6"
        d="M71.86,106.11a35.12,35.12,0,0,1-30.49-25c0,.32,0,.63,0,1a37.78,37.78,0,0,0,7.85,23.1,38.18,38.18,0,0,0,22.65,1Z"
        transform="translate(-24.17 -24.17)" />
    <path class="cls-7"
        d="M45.33,52.47A35.09,35.09,0,0,1,75,36.07a36.1,36.1,0,0,1,5.92.5,37.79,37.79,0,0,0-18.87-5c-.9,0-1.8,0-2.69.09A38,38,0,0,0,45.33,52.47Z"
        transform="translate(-24.17 -24.17)" />
</svg>